<svg xmlns="http://www.w3.org/2000/svg" version="1.1" xmlns:xlink="http://www.w3.org/1999/xlink" xmlns:svgjs="http://svgjs.dev/svgjs" width="1000" height="1000"><style>
    #light-icon {
      display: inline;
    }
    #dark-icon {
      display: none;
    }

    @media (prefers-color-scheme: dark) {
      #light-icon {
        display: none;
      }
      #dark-icon {
        display: inline;
      }
    }
  </style><g id="light-icon"><svg xmlns="http://www.w3.org/2000/svg" version="1.1" xmlns:xlink="http://www.w3.org/1999/xlink" xmlns:svgjs="http://svgjs.dev/svgjs" width="1000" height="1000"><g clip-path="url(#SvgjsClipPath1053)"><rect width="1000" height="1000" fill="#ffffff"></rect><g transform="matrix(6.4,0,0,6.4,100,428.864736)"><svg xmlns="http://www.w3.org/2000/svg" version="1.1" xmlns:xlink="http://www.w3.org/1999/xlink" xmlns:svgjs="http://svgjs.dev/svgjs" width="125" height="22.22977"><svg id="Layer_1" xmlns="http://www.w3.org/2000/svg" version="1.1" viewBox="0 0 125 22.22977">
  <!-- Generator: Adobe Illustrator 29.1.0, SVG Export Plug-In . SVG Version: 2.1.0 Build 142)  -->
  <g>
    <path d="M48.16124,2.99221c.71447.71864-.65429,4.02488-.50455,5.09475.57938-.68841,1.66378-1.70907,2.64598-1.64592,3.3906.218,1.4502,8.06524.93075,10.09077-.10817.42179-.19803,1.11477-.38117,1.45405-.58353,1.08101-1.96614.81073-1.93275-.44585.56346-2.60539,2.25243-6.14015,1.84142-8.79865-.24466-1.58253-1.35812-.48638-1.9024.27485-.77373,1.08212-1.45069,3.16497-1.5676,4.48804-.07817.88468.35179,3.6514-.49797,3.90548-1.93401.57828-1.58067-1.76854-1.52072-2.98887.17877-3.63942,1.04411-7.30979,1.15003-10.97188-.01936-.76131,1.32688-.87129,1.73899-.45678Z"></path>
    <path d="M78.98893,14.49039c-1.66018.50555-2.68568.25541-3.67775-1.16964-2.15593-3.09686-1.09622-9.76354,3.1878-10.17393.74207-.07109,1.50204.42307,1.80411.36368.35474-.06974.57896-.79304,1.02221-.75524.3888.1163.74703.38175.87538.78144.08718.27149.30076,1.87132.29888,2.18379-.00341.56672-.38822,1.05377-.41686,1.64661-.15369,3.18182.52633,7.32747-2.28383,9.68613-.92611.77731-3.39302,1.72436-3.66265-.03008-.25328-1.64805,2.67405-1.03552,2.8527-2.53275ZM78.113,5.45964c-2.25694.60254-2.90258,6.58542-.45542,7.59045,2.35683-.51625,2.70362-3.45144,2.78829-5.46995.05794-1.3814-.88903-2.50596-2.33288-2.1205Z"></path>
    <path d="M83.96963,14.07646c-.18353,1.61759.37521,3.10054,2.20265,2.29485.83747-.36923,2.07355-2.14034,3.07133-1.14985,1.19914,1.19037-1.99046,2.91889-2.99725,3.06009-6.82156.95669-3.34271-10.54443.00647-11.73817,3.67427-1.30961,3.86128,6.53241,2.2884,7.42597-.66374.37708-.92292.10711-1.36193.10711h-3.20967ZM87.25343,7.85174c-1.33537-.45153-3.2978,3.82151-2.91726,4.20495l3.29947.18221c.25223-1.50691.26269-2.96292-.38221-4.38717Z"></path>
    <path d="M55.00278,12.28091l1.60546-7.4759c.37832-.83346,1.77121-.40748,1.88141.42032-.95334,3.48996-1.55828,7.12814-2.62443,10.58266-.20377.66026-.40323,1.9847-1.28621,1.77086-.56968-.13796-.6914-1.60426-.80406-2.14306-.40354-1.93005-.38549-3.85318-.63088-5.7925-.17078-1.34968-.88197-3.69678-.88687-4.8225-.00358-.82188.94427-1.22766,1.64425-.88957.89656.43304.47055,3.27353.55162,4.21862.1169,1.3627.55278,2.74693.54971,4.13106Z"></path>
    <path d="M36.77741,3.94681c.1987.19837.23713.65936.21762.93982-.08623,1.23919-1.08281,3.49089-1.40321,4.85146-.53914,2.28946-.88885,4.67477-1.15508,7.01285.52813.52807,5.22895-1.39589,6.16187-1.45945,1.06334-.07245,1.5874,1.35233.61657,1.90923-.4871.27942-3.9577.95369-4.67144,1.01503-1.03451.08891-2.71148.22956-3.39182-.63661-.698-.88865-.16871-1.09233-.04755-1.88821.41008-2.69375.67448-5.49143,1.20354-8.15533.14264-.71823.53525-2.87669.8567-3.36392.33742-.51143,1.19953-.63745,1.61279-.22487Z"></path>
    <path d="M63.08832,17.00326c1.26241.13293,3.40532-2.45149,4.49699-1.65881,1.53903,1.11751-1.3383,2.464-2.17853,2.80212-3.95735,1.5925-4.1314-.44974-3.97729-3.79654.12412-2.69559.67346-6.4389,1.15102-9.12626.16771-.94373.14619-1.56279,1.32733-1.44532.6418.06383.77275.41335.82551,1.02156-.44465,1.5988-2.65836,11.49799-1.64504,12.20326Z"></path>
    <path d="M45.19139,3.80101c.68941-.1959,2.14287-.14689,2.13866.82818-.00592,1.36991-2.36144.86848-2.5268,1.11484-.5294,2.25883-.70233,4.83035-.5372,7.15219.06264.8807.58985,2.30436.55083,2.9185-.0606.95383-1.24803,1.35582-1.83587.56918-.81272-1.08757-.11784-7.97269.00376-9.74212.01693-.24632.10181-.41886.18902-.63472-.96603.22304-2.076-.78338-1.01423-1.47572.31299-.20409,1.09033-.27446,1.16924-.39142.37502-.55589-.13693-2.83195,1.07889-3.24616,1.95653-.02717,1.28279,1.70224.7837,2.90725Z"></path>
    <path d="M32.38452,7.48421c1.09543,1.33649-1.19514,1.68357-1.73267,1.92941-1.56242.71458-3.41392,2.56064-3.54221,4.35727-.12038,1.68588.96993,3.48575,2.57407,4.03268,1.16089.3958,3.19225-.15878,3.11211,1.45058-.07749,1.55625-2.92025.55215-3.78985.14532-3.64986-1.70757-4.22428-6.35997-1.80126-9.39757.75973-.95244,4.0413-3.90673,5.17981-2.51769Z"></path>
    <path d="M39.32737,6.49973c1.33704-.45468,2.7395,1.66194,2.81913,2.82207.10321,1.5037-.85093,3.4769-1.93315,4.49043-3.22484,3.02013-5.49543-.40559-3.76266-3.76529.66511-1.28961,1.37972-1.73052,2.28544-2.66846.22992-.2381.23563-.75781.59125-.87874ZM40.12123,8.85908c-.1893-.13361-1.16309.91005-1.352,1.12205-.7885.88488-2.03935,2.58995-.91952,3.6331,1.86612-.53659,2.90644-2.95562,2.27151-4.75515Z"></path>
    <path d="M65.83129,13.15512c.93621-.25633,2.63974-1.68744,3.49209-.83554.5625.56221.36233,1.36264-.32229,1.7151-.2838.14611-3.17139.9052-3.49981.91429-1.36118.03766-1.19278-1.21415-1.08807-2.20242.19682-1.85756,1.22767-6.08987,1.83581-7.89096.60238-1.78404,2.21768-1.02713,2.11299.08607-.89274,2.71811-2.16271,5.34636-2.53072,8.21345Z"></path>
    <path d="M59.65841,8.33132c1.93702-.29852.65663,3.20361.59358,4.09257-.10072,1.42011.15056,2.81471.18629,4.22502-.21208.76777-1.1658,1.10628-1.73052.45484-.52484-.60544.05805-2.85499.09159-3.74751.0345-.91822-.20109-4.101.16208-4.60911.10608-.14841.51321-.38747.69698-.41579Z"></path>
    <path d="M59.21152,7.51136c-1.41315-1.14554.74894-3.70805,1.74065-1.83221.68352,1.2929-.66898,2.70093-1.74065,1.83221Z"></path>
    <path d="M74.2521,12.59647c.04263.07554.43248.18309.5771.39473.39964.58483-.40938,1.53011-.57145,2.14493-.24586.93269.10051,3.197-.74393,3.44815-1.02336.30436-1.1259-.69646-1.31201-.7124-.06695-.00574-.74677.52057-1.212.58092-4.0656.52741-1.18544-7.92662,2.03188-6.27431.07377-.43642-.23293-2.16177-.68813-2.23811-1.06666.24885-1.60968,3.01202-2.80777,2.22265-.86467-.56969-.08922-1.44455.36044-2.00016,1.13848-1.40676,3.09122-2.59593,3.95493-.22474.2513.68989.22146,2.32253.41094,2.65834ZM71.93575,13.40329c-1.12904.23644-2.95218,4.43677-.964,3.83709.39396-.11883,1.88472-2.38558,1.97321-2.79792.14022-.65336-.32472-1.18251-1.00921-1.03917Z"></path>
  </g>
  <g>
    <path d="M96.24219,13.20703c.2793,0,.50586-.03027.68066-.0918.33008-.11816.49512-.33789.49512-.6582,0-.18652-.08203-.33203-.24609-.43457-.16406-.09961-.4209-.1875-.77246-.26465l-.59961-.13477c-.58984-.13281-.99707-.27832-1.22266-.43457-.38184-.26123-.57324-.66992-.57324-1.22607,0-.50781.18457-.9292.55371-1.26514s.91113-.50391,1.62695-.50391c.59668,0,1.10645.15869,1.52832.4751.4209.31641.64258.77588.66309,1.37842h-1.13867c-.02051-.34082-.16895-.58301-.44531-.72656-.18457-.09521-.41406-.14258-.68848-.14258-.30469,0-.54883.06152-.73047.18457-.18262.12305-.27344.29492-.27344.51514,0,.20264.08984.354.26953.4541.11523.06641.36133.14453.73828.23438l.97656.23438c.42773.10254.75098.23975.96875.41162.33887.2666.50781.65234.50781,1.15723,0,.51758-.19824.94727-.59375,1.29004-.39648.34277-.95605.51367-1.67871.51367-.73828,0-1.31934-.16895-1.74219-.50586s-.63379-.80078-.63379-1.39062h1.12988c.03613.25879.10645.45312.21191.58105.19238.2334.52148.34961.98828.34961Z"></path>
    <path d="M103.55469,8.35889v1.00342h-1.69531v4.66406h-1.19238v-4.66406h-1.70312v-1.00342h4.59082Z"></path>
    <path d="M106.61523,14.18359c-.80957,0-1.42871-.2207-1.85645-.66113-.57422-.54102-.86133-1.32031-.86133-2.33789,0-1.0376.28711-1.81689.86133-2.3374.42773-.44092,1.04688-.66113,1.85645-.66113.81055,0,1.42969.22021,1.85742.66113.57129.52051.85742,1.2998.85742,2.3374,0,1.01758-.28613,1.79688-.85742,2.33789-.42773.44043-1.04688.66113-1.85742.66113ZM107.73438,12.66113c.27441-.3457.41113-.83789.41113-1.47656,0-.63525-.1377-1.12695-.41309-1.47412s-.64746-.521-1.11719-.521c-.46875,0-.84277.17285-1.12207.51904s-.41992.83838-.41992,1.47607c0,.63867.14062,1.13086.41992,1.47656s.65332.51953,1.12207.51953c.46973,0,.84277-.17383,1.11914-.51953Z"></path>
    <path d="M112.64062,11.80371h-1.22266v2.22266h-1.15723v-5.66748h2.7793c.39746.00781.70312.05615.91699.146.21484.08984.39551.22168.54492.396.12305.14355.21973.30273.29199.47705.07129.17432.10742.37256.10742.5957,0,.26904-.06836.53418-.2041.79395s-.35938.44434-.67285.55176c.26172.10547.44727.25391.55566.44824.10938.19336.16406.48828.16406.88574v.38086c0,.25879.00977.43457.03027.52637.03125.14648.10254.25391.21582.32422v.1416h-1.30371c-.03613-.12598-.06152-.22754-.07715-.30371-.03027-.15918-.04688-.32227-.0498-.48828l-.00781-.52734c-.00488-.36133-.07129-.60254-.19824-.72266s-.36426-.18066-.71289-.18066ZM113.35938,10.77344c.23633-.10742.35352-.32031.35352-.63818,0-.34326-.11328-.57422-.3418-.69189-.12793-.06689-.32031-.1001-.57715-.1001h-1.37598v1.52246h1.3418c.2666,0,.4668-.03076.59961-.09229Z"></path>
    <path d="M119.86523,11.5498h-2.75293v1.45703h3.1377v1.01953h-4.29492v-5.66748h4.15625v1.00342h-2.99902v1.20361h2.75293v.98389Z"></path>
  </g>
  <g>
    <path d="M10.56885,8.51611v1.00342h-1.69531v4.66406h-1.19238v-4.66406h-1.70312v-1.00342h4.59082Z"></path>
    <path d="M14.64111,14.18359v-2.53027h-2.21484v2.53027h-1.17285v-5.66748h1.17285v2.16064h2.21484v-2.16064h1.17676v5.66748h-1.17676Z"></path>
    <path d="M20.89307,11.70703h-2.75293v1.45703h3.1377v1.01953h-4.29492v-5.66748h4.15625v1.00342h-2.99902v1.20361h2.75293v.98389Z"></path>
  </g>
</svg></svg></g></g><defs><clipPath id="SvgjsClipPath1053"><rect width="1000" height="1000" x="0" y="0" rx="350" ry="350"></rect></clipPath></defs></svg></g><g id="dark-icon"><svg xmlns="http://www.w3.org/2000/svg" version="1.1" xmlns:xlink="http://www.w3.org/1999/xlink" xmlns:svgjs="http://svgjs.dev/svgjs" width="1000" height="1000"><g><g transform="matrix(8,0,0,8,0,411.08092)" style="filter: invert(100%)"><svg xmlns="http://www.w3.org/2000/svg" version="1.1" xmlns:xlink="http://www.w3.org/1999/xlink" xmlns:svgjs="http://svgjs.dev/svgjs" width="125" height="22.22977"><svg id="Layer_1" xmlns="http://www.w3.org/2000/svg" version="1.1" viewBox="0 0 125 22.22977">
  <!-- Generator: Adobe Illustrator 29.1.0, SVG Export Plug-In . SVG Version: 2.1.0 Build 142)  -->
  <g>
    <path d="M48.16124,2.99221c.71447.71864-.65429,4.02488-.50455,5.09475.57938-.68841,1.66378-1.70907,2.64598-1.64592,3.3906.218,1.4502,8.06524.93075,10.09077-.10817.42179-.19803,1.11477-.38117,1.45405-.58353,1.08101-1.96614.81073-1.93275-.44585.56346-2.60539,2.25243-6.14015,1.84142-8.79865-.24466-1.58253-1.35812-.48638-1.9024.27485-.77373,1.08212-1.45069,3.16497-1.5676,4.48804-.07817.88468.35179,3.6514-.49797,3.90548-1.93401.57828-1.58067-1.76854-1.52072-2.98887.17877-3.63942,1.04411-7.30979,1.15003-10.97188-.01936-.76131,1.32688-.87129,1.73899-.45678Z"></path>
    <path d="M78.98893,14.49039c-1.66018.50555-2.68568.25541-3.67775-1.16964-2.15593-3.09686-1.09622-9.76354,3.1878-10.17393.74207-.07109,1.50204.42307,1.80411.36368.35474-.06974.57896-.79304,1.02221-.75524.3888.1163.74703.38175.87538.78144.08718.27149.30076,1.87132.29888,2.18379-.00341.56672-.38822,1.05377-.41686,1.64661-.15369,3.18182.52633,7.32747-2.28383,9.68613-.92611.77731-3.39302,1.72436-3.66265-.03008-.25328-1.64805,2.67405-1.03552,2.8527-2.53275ZM78.113,5.45964c-2.25694.60254-2.90258,6.58542-.45542,7.59045,2.35683-.51625,2.70362-3.45144,2.78829-5.46995.05794-1.3814-.88903-2.50596-2.33288-2.1205Z"></path>
    <path d="M83.96963,14.07646c-.18353,1.61759.37521,3.10054,2.20265,2.29485.83747-.36923,2.07355-2.14034,3.07133-1.14985,1.19914,1.19037-1.99046,2.91889-2.99725,3.06009-6.82156.95669-3.34271-10.54443.00647-11.73817,3.67427-1.30961,3.86128,6.53241,2.2884,7.42597-.66374.37708-.92292.10711-1.36193.10711h-3.20967ZM87.25343,7.85174c-1.33537-.45153-3.2978,3.82151-2.91726,4.20495l3.29947.18221c.25223-1.50691.26269-2.96292-.38221-4.38717Z"></path>
    <path d="M55.00278,12.28091l1.60546-7.4759c.37832-.83346,1.77121-.40748,1.88141.42032-.95334,3.48996-1.55828,7.12814-2.62443,10.58266-.20377.66026-.40323,1.9847-1.28621,1.77086-.56968-.13796-.6914-1.60426-.80406-2.14306-.40354-1.93005-.38549-3.85318-.63088-5.7925-.17078-1.34968-.88197-3.69678-.88687-4.8225-.00358-.82188.94427-1.22766,1.64425-.88957.89656.43304.47055,3.27353.55162,4.21862.1169,1.3627.55278,2.74693.54971,4.13106Z"></path>
    <path d="M36.77741,3.94681c.1987.19837.23713.65936.21762.93982-.08623,1.23919-1.08281,3.49089-1.40321,4.85146-.53914,2.28946-.88885,4.67477-1.15508,7.01285.52813.52807,5.22895-1.39589,6.16187-1.45945,1.06334-.07245,1.5874,1.35233.61657,1.90923-.4871.27942-3.9577.95369-4.67144,1.01503-1.03451.08891-2.71148.22956-3.39182-.63661-.698-.88865-.16871-1.09233-.04755-1.88821.41008-2.69375.67448-5.49143,1.20354-8.15533.14264-.71823.53525-2.87669.8567-3.36392.33742-.51143,1.19953-.63745,1.61279-.22487Z"></path>
    <path d="M63.08832,17.00326c1.26241.13293,3.40532-2.45149,4.49699-1.65881,1.53903,1.11751-1.3383,2.464-2.17853,2.80212-3.95735,1.5925-4.1314-.44974-3.97729-3.79654.12412-2.69559.67346-6.4389,1.15102-9.12626.16771-.94373.14619-1.56279,1.32733-1.44532.6418.06383.77275.41335.82551,1.02156-.44465,1.5988-2.65836,11.49799-1.64504,12.20326Z"></path>
    <path d="M45.19139,3.80101c.68941-.1959,2.14287-.14689,2.13866.82818-.00592,1.36991-2.36144.86848-2.5268,1.11484-.5294,2.25883-.70233,4.83035-.5372,7.15219.06264.8807.58985,2.30436.55083,2.9185-.0606.95383-1.24803,1.35582-1.83587.56918-.81272-1.08757-.11784-7.97269.00376-9.74212.01693-.24632.10181-.41886.18902-.63472-.96603.22304-2.076-.78338-1.01423-1.47572.31299-.20409,1.09033-.27446,1.16924-.39142.37502-.55589-.13693-2.83195,1.07889-3.24616,1.95653-.02717,1.28279,1.70224.7837,2.90725Z"></path>
    <path d="M32.38452,7.48421c1.09543,1.33649-1.19514,1.68357-1.73267,1.92941-1.56242.71458-3.41392,2.56064-3.54221,4.35727-.12038,1.68588.96993,3.48575,2.57407,4.03268,1.16089.3958,3.19225-.15878,3.11211,1.45058-.07749,1.55625-2.92025.55215-3.78985.14532-3.64986-1.70757-4.22428-6.35997-1.80126-9.39757.75973-.95244,4.0413-3.90673,5.17981-2.51769Z"></path>
    <path d="M39.32737,6.49973c1.33704-.45468,2.7395,1.66194,2.81913,2.82207.10321,1.5037-.85093,3.4769-1.93315,4.49043-3.22484,3.02013-5.49543-.40559-3.76266-3.76529.66511-1.28961,1.37972-1.73052,2.28544-2.66846.22992-.2381.23563-.75781.59125-.87874ZM40.12123,8.85908c-.1893-.13361-1.16309.91005-1.352,1.12205-.7885.88488-2.03935,2.58995-.91952,3.6331,1.86612-.53659,2.90644-2.95562,2.27151-4.75515Z"></path>
    <path d="M65.83129,13.15512c.93621-.25633,2.63974-1.68744,3.49209-.83554.5625.56221.36233,1.36264-.32229,1.7151-.2838.14611-3.17139.9052-3.49981.91429-1.36118.03766-1.19278-1.21415-1.08807-2.20242.19682-1.85756,1.22767-6.08987,1.83581-7.89096.60238-1.78404,2.21768-1.02713,2.11299.08607-.89274,2.71811-2.16271,5.34636-2.53072,8.21345Z"></path>
    <path d="M59.65841,8.33132c1.93702-.29852.65663,3.20361.59358,4.09257-.10072,1.42011.15056,2.81471.18629,4.22502-.21208.76777-1.1658,1.10628-1.73052.45484-.52484-.60544.05805-2.85499.09159-3.74751.0345-.91822-.20109-4.101.16208-4.60911.10608-.14841.51321-.38747.69698-.41579Z"></path>
    <path d="M59.21152,7.51136c-1.41315-1.14554.74894-3.70805,1.74065-1.83221.68352,1.2929-.66898,2.70093-1.74065,1.83221Z"></path>
    <path d="M74.2521,12.59647c.04263.07554.43248.18309.5771.39473.39964.58483-.40938,1.53011-.57145,2.14493-.24586.93269.10051,3.197-.74393,3.44815-1.02336.30436-1.1259-.69646-1.31201-.7124-.06695-.00574-.74677.52057-1.212.58092-4.0656.52741-1.18544-7.92662,2.03188-6.27431.07377-.43642-.23293-2.16177-.68813-2.23811-1.06666.24885-1.60968,3.01202-2.80777,2.22265-.86467-.56969-.08922-1.44455.36044-2.00016,1.13848-1.40676,3.09122-2.59593,3.95493-.22474.2513.68989.22146,2.32253.41094,2.65834ZM71.93575,13.40329c-1.12904.23644-2.95218,4.43677-.964,3.83709.39396-.11883,1.88472-2.38558,1.97321-2.79792.14022-.65336-.32472-1.18251-1.00921-1.03917Z"></path>
  </g>
  <g>
    <path d="M96.24219,13.20703c.2793,0,.50586-.03027.68066-.0918.33008-.11816.49512-.33789.49512-.6582,0-.18652-.08203-.33203-.24609-.43457-.16406-.09961-.4209-.1875-.77246-.26465l-.59961-.13477c-.58984-.13281-.99707-.27832-1.22266-.43457-.38184-.26123-.57324-.66992-.57324-1.22607,0-.50781.18457-.9292.55371-1.26514s.91113-.50391,1.62695-.50391c.59668,0,1.10645.15869,1.52832.4751.4209.31641.64258.77588.66309,1.37842h-1.13867c-.02051-.34082-.16895-.58301-.44531-.72656-.18457-.09521-.41406-.14258-.68848-.14258-.30469,0-.54883.06152-.73047.18457-.18262.12305-.27344.29492-.27344.51514,0,.20264.08984.354.26953.4541.11523.06641.36133.14453.73828.23438l.97656.23438c.42773.10254.75098.23975.96875.41162.33887.2666.50781.65234.50781,1.15723,0,.51758-.19824.94727-.59375,1.29004-.39648.34277-.95605.51367-1.67871.51367-.73828,0-1.31934-.16895-1.74219-.50586s-.63379-.80078-.63379-1.39062h1.12988c.03613.25879.10645.45312.21191.58105.19238.2334.52148.34961.98828.34961Z"></path>
    <path d="M103.55469,8.35889v1.00342h-1.69531v4.66406h-1.19238v-4.66406h-1.70312v-1.00342h4.59082Z"></path>
    <path d="M106.61523,14.18359c-.80957,0-1.42871-.2207-1.85645-.66113-.57422-.54102-.86133-1.32031-.86133-2.33789,0-1.0376.28711-1.81689.86133-2.3374.42773-.44092,1.04688-.66113,1.85645-.66113.81055,0,1.42969.22021,1.85742.66113.57129.52051.85742,1.2998.85742,2.3374,0,1.01758-.28613,1.79688-.85742,2.33789-.42773.44043-1.04688.66113-1.85742.66113ZM107.73438,12.66113c.27441-.3457.41113-.83789.41113-1.47656,0-.63525-.1377-1.12695-.41309-1.47412s-.64746-.521-1.11719-.521c-.46875,0-.84277.17285-1.12207.51904s-.41992.83838-.41992,1.47607c0,.63867.14062,1.13086.41992,1.47656s.65332.51953,1.12207.51953c.46973,0,.84277-.17383,1.11914-.51953Z"></path>
    <path d="M112.64062,11.80371h-1.22266v2.22266h-1.15723v-5.66748h2.7793c.39746.00781.70312.05615.91699.146.21484.08984.39551.22168.54492.396.12305.14355.21973.30273.29199.47705.07129.17432.10742.37256.10742.5957,0,.26904-.06836.53418-.2041.79395s-.35938.44434-.67285.55176c.26172.10547.44727.25391.55566.44824.10938.19336.16406.48828.16406.88574v.38086c0,.25879.00977.43457.03027.52637.03125.14648.10254.25391.21582.32422v.1416h-1.30371c-.03613-.12598-.06152-.22754-.07715-.30371-.03027-.15918-.04688-.32227-.0498-.48828l-.00781-.52734c-.00488-.36133-.07129-.60254-.19824-.72266s-.36426-.18066-.71289-.18066ZM113.35938,10.77344c.23633-.10742.35352-.32031.35352-.63818,0-.34326-.11328-.57422-.3418-.69189-.12793-.06689-.32031-.1001-.57715-.1001h-1.37598v1.52246h1.3418c.2666,0,.4668-.03076.59961-.09229Z"></path>
    <path d="M119.86523,11.5498h-2.75293v1.45703h3.1377v1.01953h-4.29492v-5.66748h4.15625v1.00342h-2.99902v1.20361h2.75293v.98389Z"></path>
  </g>
  <g>
    <path d="M10.56885,8.51611v1.00342h-1.69531v4.66406h-1.19238v-4.66406h-1.70312v-1.00342h4.59082Z"></path>
    <path d="M14.64111,14.18359v-2.53027h-2.21484v2.53027h-1.17285v-5.66748h1.17285v2.16064h2.21484v-2.16064h1.17676v5.66748h-1.17676Z"></path>
    <path d="M20.89307,11.70703h-2.75293v1.45703h3.1377v1.01953h-4.29492v-5.66748h4.15625v1.00342h-2.99902v1.20361h2.75293v.98389Z"></path>
  </g>
</svg></svg></g></g></svg></g></svg>