<?xml version="1.0" encoding="UTF-8"?>
<svg id="Layer_1" xmlns="http://www.w3.org/2000/svg" version="1.1" viewBox="0 0 125 22.229771">
  <!-- Generator: Adobe Illustrator 29.1.0, SVG Export Plug-In . SVG Version: 2.1.0 Build 142)  -->
  <defs>
    <style>
      .st0 {
        fill: #fff;
      }
    </style>
  </defs>
  <g>
    <path class="st0" d="M48.16124,2.992211c.714466.718644-.654287,4.024877-.504547,5.094753.579383-.688411,1.663781-1.709072,2.64598-1.645921,3.390603.218002,1.450202,8.06524.930749,10.090768-.10817.421794-.198029,1.11477-.381169,1.454046-.583526,1.08101-1.966138.810733-1.932746-.445847.563459-2.605385,2.252434-6.140147,1.84142-8.798651-.244665-1.582527-1.358118-.486377-1.902403.274854-.773725,1.082124-1.450688,3.164967-1.567599,4.488039-.078173.884681.351791,3.651401-.497975,3.905484-1.934015.578278-1.580668-1.768543-1.520724-2.988868.178772-3.639425,1.044107-7.309785,1.150027-10.97188-.019363-.761314,1.326883-.871291,1.738987-.456777Z"/>
    <path class="st0" d="M78.988933,14.490392c-1.660181.505547-2.68568.255412-3.677752-1.16964-2.155929-3.096863-1.096223-9.763541,3.187803-10.173933.742067-.071087,1.502038.423069,1.804114.363679.354743-.069744.578956-.793044,1.022215-.75524.388796.116296.747032.381745.875383.781436.087181.271487.300759,1.871323.29888,2.183787-.003407.566717-.388224,1.053768-.41686,1.646609-.153692,3.181817.526334,7.327466-2.283827,9.686129-.926109.777315-3.393018,1.724355-3.662651-.030075-.253284-1.648048,2.674053-1.035522,2.852696-2.532752ZM78.113001,5.459636c-2.256938.602535-2.902582,6.585418-.455417,7.59045,2.356826-.516252,2.703623-3.451445,2.788293-5.469953.057945-1.381398-.889035-2.50596-2.332876-2.120497Z"/>
    <path class="st0" d="M83.969629,14.07646c-.183532,1.617593.375207,3.100542,2.202654,2.294852.837475-.369229,2.073546-2.140339,3.071326-1.149854,1.199136,1.190368-1.990459,2.918893-2.997247,3.060089-6.821564.956685-3.342706-10.544431.006466-11.738166,3.674271-1.309609,3.861277,6.532413,2.288401,7.425972-.663744.377076-.922921.107108-1.361933.107108h-3.209667ZM87.253426,7.851741c-1.335373-.45153-3.297798,3.821511-2.917263,4.204953l3.299472.182213c.252229-1.506911.262692-2.962924-.382209-4.387166Z"/>
    <path class="st0" d="M55.002776,12.28091l1.605457-7.475902c.378321-.833463,1.77121-.407482,1.881406.420324-.953336,3.48996-1.55828,7.12814-2.624427,10.582664-.203772.660262-.403225,1.984697-1.286205,1.770861-.569683-.137964-.691405-1.604263-.804057-2.143062-.403536-1.930045-.385492-3.853177-.630875-5.792497-.170776-1.349676-.881973-3.696782-.886871-4.822505-.003576-.821881.944272-1.227655,1.644247-.889566.896562.433041.470545,3.273535.551621,4.218625.1169,1.362699.552776,2.746933.549706,4.131058Z"/>
    <path class="st0" d="M36.77741,3.946809c.198699.198368.237131.659359.217616.939818-.086225,1.239187-1.082809,3.490891-1.403207,4.851463-.53914,2.289458-.888846,4.674771-1.155077,7.01285.528133.528074,5.22895-1.395886,6.16187-1.459449,1.063345-.072449,1.587397,1.352325.616571,1.909227-.487104.279421-3.957702.953693-4.67144,1.015034-1.034513.08891-2.711482.22956-3.391822-.636607-.697996-.888646-.168706-1.092328-.047546-1.888211.41008-2.693747.674478-5.491433,1.203545-8.155325.142645-.718227.535246-2.876692.8567-3.363924.337421-.511432,1.199525-.63745,1.61279-.224875Z"/>
    <path class="st0" d="M63.088318,17.003258c1.262409.13293,3.405317-2.451491,4.496991-1.658815,1.539033,1.117509-1.338297,2.463998-2.178526,2.802119-3.957354,1.592497-4.131396-.449742-3.977288-3.796545.124122-2.695588.673465-6.438902,1.15102-9.126257.167706-.943732.146187-1.562785,1.327332-1.445324.641801.063825.772752.413352.825511,1.021565-.444646,1.598804-2.658364,11.497987-1.64504,12.203257Z"/>
    <path class="st0" d="M45.191387,3.801009c.689411-.195903,2.142871-.146887,2.138661.828176-.005915,1.369908-2.361435.86848-2.526805,1.114843-.529396,2.258831-.702332,4.830349-.537201,7.15219.062636.880697.589853,2.304356.550832,2.918496-.060604.953833-1.248034,1.355817-1.835868.569185-.812717-1.087569-.117839-7.972695.003762-9.742123.016928-.246316.101808-.418861.189023-.634721-.966029.223042-2.075997-.783384-1.014233-1.475719.312986-.204086,1.090331-.274456,1.169239-.391421.375022-.55589-.136934-2.831948,1.078886-3.246156,1.956535-.027167,1.282787,1.702235.783704,2.90725Z"/>
    <path class="st0" d="M32.38452,7.484211c1.095434,1.336495-1.195144,1.683571-1.732665,1.929408-1.562422.714578-3.413919,2.560644-3.542212,4.357274-.120384,1.685878.969925,3.485753,2.574069,4.032682,1.160887.395802,3.192247-.158777,3.11211,1.450578-.077493,1.556251-2.920254.552154-3.789848.145319-3.649862-1.707569-4.224278-6.359969-1.801262-9.397575.759732-.952436,4.041303-3.906731,5.179808-2.517687Z"/>
    <path class="st0" d="M39.327371,6.499729c1.337045-.454681,2.739495,1.661938,2.819126,2.822067.103214,1.5037-.85093,3.476901-1.933155,4.490427-3.224842,3.020132-5.495426-.405586-3.762665-3.765289.665114-1.28961,1.37972-1.730521,2.285442-2.668464.229923-.238102.235627-.757806.591251-.878741ZM40.121234,8.859079c-.189297-.133608-1.163089.910048-1.351995,1.122047-.788495.884885-2.039352,2.589946-.919518,3.633103,1.86612-.536586,2.90644-2.955615,2.271513-4.75515Z"/>
    <path class="st0" d="M65.831286,13.155121c.936212-.256333,2.639738-1.687441,3.492085-.83554.562499.562206.362332,1.362641-.322286,1.715099-.2838.146107-3.171391.905204-3.499808.91429-1.361176.037658-1.192784-1.214146-1.088074-2.202416.196815-1.857561,1.227669-6.089874,1.835809-7.890959.602384-1.784039,2.217678-1.027132,2.11299.086074-.892745,2.718111-2.162713,5.346364-2.530717,8.213452Z"/>
    <path class="st0" d="M59.658405,8.331324c1.93702-.298523.656632,3.203613.593581,4.092566-.100724,1.420114.150557,2.814711.186287,4.225016-.212077.767769-1.165796,1.106285-1.730517.454837-.524838-.605441.058053-2.854986.091591-3.747514.034503-.918221-.201091-4.101005.162078-4.60911.106078-.148412.513208-.387472.69698-.415794Z"/>
    <path class="st0" d="M59.211515,7.511364c-1.413151-1.145536.748942-3.708052,1.740649-1.832208.683521,1.292901-.66898,2.70093-1.740649,1.832208Z"/>
    <path class="st0" d="M74.252104,12.596472c.042626.075545.432479.183086.577104.394728.399638.584827-.409379,1.530106-.571451,2.14493-.245864.932695.100514,3.197003-.74393,3.448149-1.023362.304358-1.125898-.696457-1.312008-.7124-.066948-.005735-.746768.520566-1.212.580918-4.065603.52741-1.18544-7.926619,2.031876-6.274312.073767-.436421-.232927-2.161775-.68813-2.238105-1.06666.248852-1.609678,3.012016-2.807769,2.222654-.864668-.569687-.089217-1.444548.360438-2.000164,1.138477-1.406756,3.091218-2.595926,3.954929-.224736.251296.689894.221464,2.322533.410941,2.658338ZM71.935751,13.403293c-1.12904.236442-2.952181,4.436773-.964002,3.83709.393957-.118827,1.884718-2.385584,1.973212-2.797921.140222-.653363-.324721-1.182513-1.00921-1.039169Z"/>
  </g>
  <g>
    <path class="st0" d="M96.242188,13.207031c.279297,0,.505859-.030273.680664-.091797.330078-.118164.495117-.337891.495117-.658203,0-.186523-.082031-.332031-.246094-.43457-.164062-.099609-.420898-.1875-.772461-.264648l-.599609-.134766c-.589844-.132812-.99707-.27832-1.222656-.43457-.381836-.26123-.573242-.669922-.573242-1.226074,0-.507812.18457-.929199.553711-1.265137s.911133-.503906,1.626953-.503906c.59668,0,1.106445.158691,1.52832.475098.420898.316406.642578.775879.663086,1.378418h-1.138672c-.020508-.34082-.168945-.583008-.445312-.726562-.18457-.095215-.414062-.142578-.688477-.142578-.304688,0-.548828.061523-.730469.18457-.182617.123047-.273438.294922-.273438.515137,0,.202637.089844.354004.269531.454102.115234.066406.361328.144531.738281.234375l.976562.234375c.427734.102539.750977.239746.96875.411621.338867.266602.507812.652344.507812,1.157227,0,.517578-.198242.947266-.59375,1.290039-.396484.342773-.956055.513672-1.678711.513672-.738281,0-1.319336-.168945-1.742188-.505859s-.633789-.800781-.633789-1.390625h1.129883c.036133.258789.106445.453125.211914.581055.192383.233398.521484.349609.988281.349609Z"/>
    <path class="st0" d="M103.554688,8.358887v1.003418h-1.695312v4.664062h-1.192383v-4.664062h-1.703125v-1.003418h4.59082Z"/>
    <path class="st0" d="M106.615234,14.183594c-.80957,0-1.428711-.220703-1.856445-.661133-.574219-.541016-.861328-1.320312-.861328-2.337891,0-1.037598.287109-1.816895.861328-2.337402.427734-.440918,1.046875-.661133,1.856445-.661133.810547,0,1.429688.220215,1.857422.661133.571289.520508.857422,1.299805.857422,2.337402,0,1.017578-.286133,1.796875-.857422,2.337891-.427734.44043-1.046875.661133-1.857422.661133ZM107.734375,12.661133c.274414-.345703.411133-.837891.411133-1.476562,0-.635254-.137695-1.126953-.413086-1.474121s-.647461-.520996-1.117188-.520996c-.46875,0-.842773.172852-1.12207.519043s-.419922.838379-.419922,1.476074c0,.638672.140625,1.130859.419922,1.476562s.65332.519531,1.12207.519531c.469727,0,.842773-.173828,1.119141-.519531Z"/>
    <path class="st0" d="M112.640625,11.803711h-1.222656v2.222656h-1.157227v-5.66748h2.779297c.397461.007812.703125.056152.916992.145996.214844.089844.395508.22168.544922.395996.123047.143555.219727.302734.291992.477051.071289.174316.107422.372559.107422.595703,0,.269043-.068359.53418-.204102.793945s-.359375.444336-.672852.551758c.261719.105469.447266.253906.555664.448242.109375.193359.164062.488281.164062.885742v.380859c0,.258789.009766.43457.030273.526367.03125.146484.102539.253906.21582.324219v.141602h-1.303711c-.036133-.125977-.061523-.227539-.077148-.303711-.030273-.15918-.046875-.322266-.049805-.488281l-.007812-.527344c-.004883-.361328-.071289-.602539-.198242-.722656s-.364258-.180664-.712891-.180664ZM113.359375,10.773438c.236328-.107422.353516-.320312.353516-.638184,0-.343262-.113281-.574219-.341797-.691895-.12793-.066895-.320312-.100098-.577148-.100098h-1.375977v1.522461h1.341797c.266602,0,.466797-.030762.599609-.092285Z"/>
    <path class="st0" d="M119.865234,11.549805h-2.75293v1.457031h3.137695v1.019531h-4.294922v-5.66748h4.15625v1.003418h-2.999023v1.203613h2.75293v.983887Z"/>
  </g>
  <g>
    <path class="st0" d="M10.568848,8.516113v1.003418h-1.695312v4.664062h-1.192383v-4.664062h-1.703125v-1.003418h4.59082Z"/>
    <path class="st0" d="M14.641113,14.183594v-2.530273h-2.214844v2.530273h-1.172852v-5.66748h1.172852v2.160645h2.214844v-2.160645h1.176758v5.66748h-1.176758Z"/>
    <path class="st0" d="M20.893066,11.707031h-2.75293v1.457031h3.137695v1.019531h-4.294922v-5.66748h4.15625v1.003418h-2.999023v1.203613h2.75293v.983887Z"/>
  </g>
</svg>